<svg xmlns="http://www.w3.org/2000/svg" xmlns:xlink="http://www.w3.org/1999/xlink" width="500" zoomAndPan="magnify" viewBox="0 0 375 374.999991" height="500" preserveAspectRatio="xMidYMid meet" version="1.0"><defs><g/></defs><path stroke-linecap="butt" transform="matrix(0.751576, 0, 0, 0.75, 91.066859, 208.021597)" fill="none" stroke-linejoin="miter" d="M -0.000601762 6.002455 L 148.6921 6.002455 " stroke="#000000" stroke-width="12" stroke-opacity="1" stroke-miterlimit="4"/><g fill="#000000" fill-opacity="1"><g transform="translate(91.066859, 198.906388)"><g><path d="M 2.546875 -25.4375 L 14.578125 -25.4375 C 17.359375 -25.4375 19.828125 -24.914062 21.984375 -23.875 C 24.140625 -22.832031 25.8125 -21.351562 27 -19.4375 C 28.1875 -17.53125 28.78125 -15.289062 28.78125 -12.71875 C 28.78125 -10.15625 28.1875 -7.914062 27 -6 C 25.8125 -4.082031 24.140625 -2.601562 21.984375 -1.5625 C 19.828125 -0.519531 17.359375 0 14.578125 0 L 2.546875 0 Z M 14.28125 -5.75 C 16.457031 -5.75 18.207031 -6.363281 19.53125 -7.59375 C 20.851562 -8.832031 21.515625 -10.539062 21.515625 -12.71875 C 21.515625 -14.894531 20.851562 -16.601562 19.53125 -17.84375 C 18.207031 -19.082031 16.457031 -19.703125 14.28125 -19.703125 L 9.734375 -19.703125 L 9.734375 -5.75 Z M 14.28125 -5.75 "/></g></g></g><g fill="#000000" fill-opacity="1"><g transform="translate(124.245819, 198.906388)"><g><path d="M 14.28125 0.515625 C 10.5 0.515625 7.5625 -0.515625 5.46875 -2.578125 C 3.375 -4.640625 2.328125 -7.5625 2.328125 -11.34375 L 2.328125 -25.4375 L 9.515625 -25.4375 L 9.515625 -11.5625 C 9.515625 -7.488281 11.128906 -5.453125 14.359375 -5.453125 C 17.554688 -5.453125 19.15625 -7.488281 19.15625 -11.5625 L 19.15625 -25.4375 L 26.234375 -25.4375 L 26.234375 -11.34375 C 26.234375 -7.5625 25.1875 -4.640625 23.09375 -2.578125 C 21 -0.515625 18.0625 0.515625 14.28125 0.515625 Z M 14.28125 0.515625 "/></g></g></g><g fill="#000000" fill-opacity="1"><g transform="translate(155.971197, 198.906388)"><g><path d="M 25.515625 0 L 25.4375 -13.484375 L 18.90625 -2.5 L 15.703125 -2.5 L 9.1875 -13.125 L 9.1875 0 L 2.546875 0 L 2.546875 -25.4375 L 8.46875 -25.4375 L 17.40625 -10.75 L 26.125 -25.4375 L 32.0625 -25.4375 L 32.125 0 Z M 25.515625 0 "/></g></g></g><g fill="#000000" fill-opacity="1"><g transform="translate(193.801655, 198.906388)"><g><path d="M 2.546875 -25.4375 L 9.734375 -25.4375 L 9.734375 0 L 2.546875 0 Z M 2.546875 -25.4375 "/></g></g></g><g fill="#000000" fill-opacity="1"><g transform="translate(209.28313, 198.906388)"><g><path d="M 11.484375 0.515625 C 9.421875 0.515625 7.421875 0.257812 5.484375 -0.25 C 3.546875 -0.757812 1.972656 -1.441406 0.765625 -2.296875 L 3.125 -7.59375 C 4.257812 -6.84375 5.578125 -6.238281 7.078125 -5.78125 C 8.585938 -5.320312 10.066406 -5.09375 11.515625 -5.09375 C 14.285156 -5.09375 15.671875 -5.78125 15.671875 -7.15625 C 15.671875 -7.882812 15.273438 -8.421875 14.484375 -8.765625 C 13.691406 -9.117188 12.425781 -9.492188 10.6875 -9.890625 C 8.769531 -10.296875 7.171875 -10.734375 5.890625 -11.203125 C 4.609375 -11.679688 3.503906 -12.441406 2.578125 -13.484375 C 1.660156 -14.523438 1.203125 -15.929688 1.203125 -17.703125 C 1.203125 -19.253906 1.625 -20.648438 2.46875 -21.890625 C 3.320312 -23.140625 4.585938 -24.128906 6.265625 -24.859375 C 7.953125 -25.585938 10.019531 -25.953125 12.46875 -25.953125 C 14.132812 -25.953125 15.78125 -25.765625 17.40625 -25.390625 C 19.03125 -25.015625 20.460938 -24.460938 21.703125 -23.734375 L 19.484375 -18.390625 C 17.054688 -19.703125 14.703125 -20.359375 12.421875 -20.359375 C 10.992188 -20.359375 9.953125 -20.144531 9.296875 -19.71875 C 8.648438 -19.289062 8.328125 -18.738281 8.328125 -18.0625 C 8.328125 -17.382812 8.710938 -16.875 9.484375 -16.53125 C 10.265625 -16.195312 11.515625 -15.847656 13.234375 -15.484375 C 15.171875 -15.066406 16.773438 -14.625 18.046875 -14.15625 C 19.316406 -13.6875 20.414062 -12.9375 21.34375 -11.90625 C 22.28125 -10.875 22.75 -9.472656 22.75 -7.703125 C 22.75 -6.179688 22.320312 -4.800781 21.46875 -3.5625 C 20.625 -2.320312 19.351562 -1.332031 17.65625 -0.59375 C 15.96875 0.144531 13.910156 0.515625 11.484375 0.515625 Z M 11.484375 0.515625 "/></g></g></g><g fill="#000000" fill-opacity="1"><g transform="translate(235.957269, 198.906388)"><g><path d="M 19.59375 -4.9375 L 8.828125 -4.9375 L 6.828125 0 L -0.515625 0 L 10.71875 -25.4375 L 17.8125 -25.4375 L 29.078125 0 L 21.59375 0 Z M 17.484375 -10.25 L 14.203125 -18.390625 L 10.9375 -10.25 Z M 17.484375 -10.25 "/></g></g></g><g fill="#000000" fill-opacity="1"><g transform="translate(267.682647, 198.906388)"><g><path d="M 26.75 -25.4375 L 26.75 0 L 20.828125 0 L 9.59375 -13.5625 L 9.59375 0 L 2.546875 0 L 2.546875 -25.4375 L 8.46875 -25.4375 L 19.703125 -11.890625 L 19.703125 -25.4375 Z M 26.75 -25.4375 "/></g></g></g><g fill="#000000" fill-opacity="1"><g transform="translate(300.134816, 198.906388)"><g><path d="M 2.546875 -25.4375 L 9.734375 -25.4375 L 9.734375 0 L 2.546875 0 Z M 2.546875 -25.4375 "/></g></g></g></svg>