<svg xmlns="http://www.w3.org/2000/svg" xmlns:xlink="http://www.w3.org/1999/xlink" width="500" zoomAndPan="magnify" viewBox="0 0 375 374.999991" height="500" preserveAspectRatio="xMidYMid meet" version="1.0"><defs><g/><clipPath id="c7f59c6f9f"><path d="M 68.59375 168.355469 L 106.84375 168.355469 L 106.84375 206.605469 L 68.59375 206.605469 Z M 68.59375 168.355469 " clip-rule="nonzero"/></clipPath></defs><g clip-path="url(#c7f59c6f9f)"><path fill="#000000" d="M 76.226562 199.722656 L 76.660156 200.152344 L 76.703125 200.195312 C 78.050781 201.589844 78.035156 203.839844 76.660156 205.214844 C 75.285156 206.59375 73.039062 206.605469 71.644531 205.257812 L 71.597656 205.214844 L 71.167969 204.785156 L 69.988281 203.601562 C 68.597656 202.210938 68.597656 199.933594 69.988281 198.539062 C 71.378906 197.144531 73.660156 197.144531 75.050781 198.539062 Z M 100.101562 180.128906 L 100.519531 179.707031 L 105.414062 174.8125 C 106.804688 173.421875 106.804688 171.144531 105.414062 169.746094 C 104.019531 168.355469 101.742188 168.355469 100.351562 169.746094 L 95.941406 174.164062 L 95.460938 174.644531 L 95.039062 175.0625 L 92.507812 177.59375 C 91.121094 178.988281 91.121094 181.265625 92.507812 182.660156 L 95.039062 185.191406 L 95.492188 185.640625 L 100.386719 190.535156 C 101.777344 191.925781 104.050781 191.925781 105.449219 190.535156 C 106.839844 189.144531 106.839844 186.863281 105.449219 185.472656 L 100.554688 180.574219 Z M 70.191406 169.78125 L 70.191406 169.777344 C 71.582031 168.386719 73.859375 168.386719 75.25 169.777344 L 105.378906 199.929688 C 106.777344 201.320312 106.777344 203.601562 105.378906 204.992188 C 103.988281 206.386719 101.714844 206.386719 100.320312 204.992188 L 70.191406 174.839844 C 68.800781 173.449219 68.800781 171.171875 70.191406 169.78125 Z M 70.144531 184.214844 C 71.535156 182.824219 73.8125 182.824219 75.207031 184.214844 L 78.636719 187.648438 L 86.0625 195.074219 L 90.957031 199.972656 C 92.347656 201.363281 92.347656 203.644531 90.957031 205.035156 C 89.558594 206.429688 87.285156 206.429688 85.894531 205.035156 L 81 200.140625 L 73.578125 192.710938 L 70.144531 189.28125 C 68.753906 187.886719 68.753906 185.605469 70.144531 184.214844 Z M 70.144531 184.214844 " fill-opacity="1" fill-rule="evenodd"/></g><g fill="#000000" fill-opacity="1"><g transform="translate(114.083231, 198.608483)"><g><path d="M 1.8125 -22.1875 L 12.734375 -22.1875 C 15.210938 -22.1875 17.394531 -21.734375 19.28125 -20.828125 C 21.175781 -19.929688 22.644531 -18.648438 23.6875 -16.984375 C 24.726562 -15.316406 25.25 -13.351562 25.25 -11.09375 C 25.25 -8.832031 24.726562 -6.863281 23.6875 -5.1875 C 22.644531 -3.519531 21.175781 -2.238281 19.28125 -1.34375 C 17.394531 -0.445312 15.210938 0 12.734375 0 L 1.8125 0 Z M 12.421875 -5.828125 C 14.023438 -5.828125 15.304688 -6.285156 16.265625 -7.203125 C 17.234375 -8.128906 17.71875 -9.425781 17.71875 -11.09375 C 17.71875 -12.757812 17.234375 -14.050781 16.265625 -14.96875 C 15.304688 -15.882812 14.023438 -16.34375 12.421875 -16.34375 L 9.28125 -16.34375 L 9.28125 -5.828125 Z M 12.421875 -5.828125 "/></g></g></g><g fill="#000000" fill-opacity="1"><g transform="translate(140.827545, 198.608483)"><g><path d="M 12.421875 0.5 C 9.015625 0.5 6.359375 -0.414062 4.453125 -2.25 C 2.554688 -4.082031 1.609375 -6.660156 1.609375 -9.984375 L 1.609375 -22.1875 L 9.09375 -22.1875 L 9.09375 -10.203125 C 9.09375 -8.578125 9.382812 -7.394531 9.96875 -6.65625 C 10.550781 -5.914062 11.390625 -5.546875 12.484375 -5.546875 C 13.578125 -5.546875 14.414062 -5.914062 15 -6.65625 C 15.582031 -7.394531 15.875 -8.578125 15.875 -10.203125 L 15.875 -22.1875 L 23.234375 -22.1875 L 23.234375 -9.984375 C 23.234375 -6.660156 22.28125 -4.082031 20.375 -2.25 C 18.46875 -0.414062 15.816406 0.5 12.421875 0.5 Z M 12.421875 0.5 "/></g></g></g><g fill="#000000" fill-opacity="1"><g transform="translate(166.24098, 198.608483)"><g><path d="M 21.609375 0 L 21.546875 -10.109375 L 16.734375 -2 L 13.4375 -2 L 8.625 -9.765625 L 8.625 0 L 1.8125 0 L 1.8125 -22.1875 L 7.953125 -22.1875 L 15.171875 -10.359375 L 22.21875 -22.1875 L 28.359375 -22.1875 L 28.421875 0 Z M 21.609375 0 "/></g></g></g><g fill="#000000" fill-opacity="1"><g transform="translate(197.041287, 198.608483)"><g><path d="M 1.8125 -22.1875 L 9.28125 -22.1875 L 9.28125 0 L 1.8125 0 Z M 1.8125 -22.1875 "/></g></g></g><g fill="#000000" fill-opacity="1"><g transform="translate(208.702381, 198.608483)"><g><path d="M 10.078125 0.5 C 8.234375 0.5 6.441406 0.296875 4.703125 -0.109375 C 2.960938 -0.523438 1.53125 -1.082031 0.40625 -1.78125 L 2.8125 -7.21875 C 3.875 -6.613281 5.054688 -6.125 6.359375 -5.75 C 7.671875 -5.382812 8.929688 -5.203125 10.140625 -5.203125 C 11.171875 -5.203125 11.910156 -5.300781 12.359375 -5.5 C 12.804688 -5.695312 13.03125 -6 13.03125 -6.40625 C 13.03125 -6.863281 12.738281 -7.207031 12.15625 -7.4375 C 11.570312 -7.675781 10.613281 -7.929688 9.28125 -8.203125 C 7.570312 -8.566406 6.144531 -8.953125 5 -9.359375 C 3.863281 -9.773438 2.875 -10.453125 2.03125 -11.390625 C 1.1875 -12.328125 0.765625 -13.597656 0.765625 -15.203125 C 0.765625 -16.597656 1.15625 -17.863281 1.9375 -19 C 2.71875 -20.144531 3.882812 -21.046875 5.4375 -21.703125 C 6.988281 -22.359375 8.875 -22.6875 11.09375 -22.6875 C 12.613281 -22.6875 14.109375 -22.519531 15.578125 -22.1875 C 17.046875 -21.863281 18.335938 -21.382812 19.453125 -20.75 L 17.203125 -15.34375 C 15.023438 -16.4375 12.96875 -16.984375 11.03125 -16.984375 C 9.101562 -16.984375 8.140625 -16.519531 8.140625 -15.59375 C 8.140625 -15.144531 8.425781 -14.8125 9 -14.59375 C 9.570312 -14.375 10.507812 -14.132812 11.8125 -13.875 C 13.507812 -13.5625 14.9375 -13.195312 16.09375 -12.78125 C 17.257812 -12.375 18.269531 -11.703125 19.125 -10.765625 C 19.976562 -9.835938 20.40625 -8.570312 20.40625 -6.96875 C 20.40625 -5.570312 20.015625 -4.304688 19.234375 -3.171875 C 18.453125 -2.046875 17.285156 -1.148438 15.734375 -0.484375 C 14.179688 0.171875 12.296875 0.5 10.078125 0.5 Z M 10.078125 0.5 "/></g></g></g><g fill="#000000" fill-opacity="1"><g transform="translate(230.091513, 198.608483)"><g><path d="M 16.921875 -3.859375 L 8.5 -3.859375 L 7 0 L -0.609375 0 L 9.09375 -22.1875 L 16.453125 -22.1875 L 26.140625 0 L 18.40625 0 Z M 14.859375 -9.25 L 12.703125 -14.828125 L 10.546875 -9.25 Z M 14.859375 -9.25 "/></g></g></g><g fill="#000000" fill-opacity="1"><g transform="translate(256.202077, 198.608483)"><g><path d="M 23.671875 -22.1875 L 23.671875 0 L 17.515625 0 L 9.09375 -10.078125 L 9.09375 0 L 1.8125 0 L 1.8125 -22.1875 L 7.953125 -22.1875 L 16.375 -12.109375 L 16.375 -22.1875 Z M 23.671875 -22.1875 "/></g></g></g><g fill="#000000" fill-opacity="1"><g transform="translate(282.249263, 198.608483)"><g><path d="M 1.8125 -22.1875 L 9.28125 -22.1875 L 9.28125 0 L 1.8125 0 Z M 1.8125 -22.1875 "/></g></g></g></svg>